<svg id="圖層_1" data-name="圖層 1" xmlns="http://www.w3.org/2000/svg" viewBox="0 0 16 16">
  <defs>
    <style>
      .cls-1 {
        fill: #77b55a;
      }
    </style>
  </defs>
  <title>Safari-pin</title>
  <g>
    <path class="cls-1" d="M9.6,1.43A2.3,2.3,0,0,1,11.38,1a3,3,0,0,1-1,1.78,3,3,0,0,1-2,.48,10,10,0,0,0,.5-.88A3,3,0,0,1,9.6,1.43Z"/>
    <path class="cls-1" d="M7.64,2.38a1.07,1.07,0,0,0-.83-.18A1.41,1.41,0,0,0,7.26,3a1.41,1.41,0,0,0,.92.22,4.69,4.69,0,0,1-.24-.41A1.38,1.38,0,0,0,7.64,2.38Z"/>
    <path class="cls-1" d="M7.73,5.14h.33a2.59,2.59,0,0,1,.22-1.74,2.92,2.92,0,0,0-.93,1.74Z"/>
    <path class="cls-1" d="M7.73,5.33a4.83,4.83,0,1,0,4.83,4.83A4.83,4.83,0,0,0,7.73,5.33Zm2,6.81-2-1.36-2,1.36,1.36-2-1.36-2,2,1.36,2-1.36-1.36,2Z"/>
  </g>
</svg>
